<svg width="190" height="128" viewBox="0 0 190 128" fill="none" xmlns="http://www.w3.org/2000/svg">
<rect y="46" width="21.1111" height="66" fill="#707DA8"/>
<path d="M10.0616 125H8.8873V119.103H5.72617V125H4.5455V118.132H10.0616V125ZM17.5582 125H16.3839V122.067H13.2291V125H12.0484V118.132H13.2291V121.109H16.3839V118.132H17.5582V125Z" fill="#888888"/>
<path d="M33.4047 125V118.132H36.0834C36.9975 118.132 37.6978 118.293 38.1845 118.614C38.6754 118.932 38.9208 119.399 38.9208 120.017C38.9208 120.334 38.8256 120.622 38.6352 120.88C38.4448 121.134 38.1633 121.329 37.7909 121.464C38.2057 121.562 38.5379 121.752 38.7875 122.036C39.0414 122.319 39.1684 122.658 39.1684 123.051C39.1684 123.682 38.9356 124.164 38.4701 124.499C38.0089 124.833 37.3551 125 36.5087 125H33.4047ZM34.579 121.985V124.054H36.5214C37.0123 124.054 37.3783 123.963 37.6196 123.781C37.865 123.599 37.9877 123.343 37.9877 123.013C37.9877 122.328 37.4841 121.985 36.477 121.985H34.579ZM34.579 121.045H36.0961C37.1964 121.045 37.7465 120.724 37.7465 120.081C37.7465 119.437 37.226 119.105 36.185 119.084H34.579V121.045ZM45.7509 119.084H43.4467V125H42.2724V119.084H40.0126V118.132H45.7509V119.084Z" fill="#888888"/>
<rect x="28.1482" width="21.1111" height="112" fill="#12ACCE"/>
<path d="M63.4432 124.168C63.8622 124.168 64.2282 124.042 64.5414 123.788C64.8545 123.534 65.028 123.216 65.0619 122.835H66.1727C66.1516 123.229 66.0162 123.604 65.7665 123.959C65.5168 124.314 65.1825 124.598 64.7636 124.81C64.3488 125.021 63.9087 125.127 63.4432 125.127C62.508 125.127 61.7632 124.816 61.2089 124.194C60.6587 123.568 60.3837 122.713 60.3837 121.629V121.433C60.3837 120.764 60.5064 120.169 60.7518 119.649C60.9973 119.128 61.3485 118.724 61.8056 118.437C62.2668 118.149 62.8106 118.005 63.4369 118.005C64.2071 118.005 64.8461 118.236 65.3539 118.697C65.8659 119.158 66.1389 119.757 66.1727 120.493H65.0619C65.028 120.049 64.8588 119.685 64.5541 119.401C64.2536 119.114 63.8812 118.97 63.4369 118.97C62.8402 118.97 62.3768 119.186 62.0468 119.617C61.7209 120.045 61.558 120.665 61.558 121.477V121.699C61.558 122.491 61.7209 123.1 62.0468 123.527C62.3726 123.955 62.8381 124.168 63.4432 124.168ZM73.2948 121.642C73.2948 122.687 73.0557 123.529 72.5775 124.168C72.0993 124.807 71.4519 125.127 70.6351 125.127C69.8015 125.127 69.1456 124.862 68.6674 124.333V127.641H67.4931V118.132H68.5658L68.6229 118.894C69.1011 118.301 69.7655 118.005 70.6161 118.005C71.4413 118.005 72.093 118.316 72.5712 118.938C73.0536 119.56 73.2948 120.425 73.2948 121.534V121.642ZM72.1205 121.509C72.1205 120.734 71.9555 120.123 71.6254 119.674C71.2953 119.226 70.8425 119.001 70.267 119.001C69.556 119.001 69.0228 119.317 68.6674 119.947V123.229C69.0186 123.855 69.556 124.168 70.2797 124.168C70.8425 124.168 71.2889 123.946 71.619 123.502C71.9533 123.053 72.1205 122.389 72.1205 121.509Z" fill="#888888"/>
<rect x="56.2964" y="46" width="21.1111" height="66" fill="#6F7CA8"/>
<path d="M94.9184 125H93.7377V122.512C93.2214 122.647 92.6925 122.715 92.1508 122.715C91.2918 122.715 90.6358 122.495 90.183 122.055C89.7345 121.615 89.5059 120.988 89.4975 120.176V118.125H90.6718V120.214C90.693 121.238 91.186 121.75 92.1508 121.75C92.6925 121.75 93.2214 121.682 93.7377 121.547V118.132H94.9184V125ZM101.907 119.084H99.603V125H98.4286V119.084H96.1689V118.132H101.907V119.084Z" fill="#888888"/>
<rect x="84.4443" y="72" width="21.1111" height="40" fill="#A46192"/>
<path d="M123.283 125H122.108V119.103H118.947V125H117.767V118.132H123.283V125ZM130.271 119.084H127.967V125H126.793V119.084H124.533V118.132H130.271V119.084Z" fill="#888888"/>
<rect x="112.593" y="34" width="21.1111" height="78" fill="#5689B2"/>
<path d="M148.447 124.168C148.866 124.168 149.232 124.042 149.545 123.788C149.858 123.534 150.032 123.216 150.066 122.835H151.177C151.156 123.229 151.02 123.604 150.77 123.959C150.521 124.314 150.186 124.598 149.768 124.81C149.353 125.021 148.913 125.127 148.447 125.127C147.512 125.127 146.767 124.816 146.213 124.194C145.663 123.568 145.388 122.713 145.388 121.629V121.433C145.388 120.764 145.51 120.169 145.756 119.649C146.001 119.128 146.352 118.724 146.809 118.437C147.271 118.149 147.815 118.005 148.441 118.005C149.211 118.005 149.85 118.236 150.358 118.697C150.87 119.158 151.143 119.757 151.177 120.493H150.066C150.032 120.049 149.863 119.685 149.558 119.401C149.258 119.114 148.885 118.97 148.441 118.97C147.844 118.97 147.381 119.186 147.051 119.617C146.725 120.045 146.562 120.665 146.562 121.477V121.699C146.562 122.491 146.725 123.1 147.051 123.527C147.377 123.955 147.842 124.168 148.447 124.168ZM155.512 118.525C156.375 118.525 157.065 118.815 157.581 119.395C158.102 119.971 158.362 120.73 158.362 121.674V121.782C158.362 122.429 158.237 123.009 157.988 123.521C157.738 124.029 157.378 124.424 156.909 124.708C156.443 124.987 155.906 125.127 155.296 125.127C154.374 125.127 153.631 124.82 153.068 124.207C152.505 123.589 152.224 122.761 152.224 121.725V121.153C152.224 119.71 152.491 118.563 153.024 117.713C153.561 116.862 154.353 116.344 155.398 116.158C155.99 116.052 156.39 115.923 156.598 115.771C156.805 115.618 156.909 115.409 156.909 115.142H157.873C157.873 115.671 157.753 116.084 157.512 116.38C157.275 116.676 156.894 116.886 156.369 117.008L155.493 117.205C154.795 117.37 154.27 117.649 153.919 118.043C153.572 118.432 153.345 118.953 153.24 119.604C153.862 118.885 154.619 118.525 155.512 118.525ZM155.284 119.49C154.708 119.49 154.251 119.685 153.913 120.074C153.574 120.459 153.405 120.995 153.405 121.68V121.782C153.405 122.518 153.574 123.102 153.913 123.534C154.255 123.961 154.717 124.175 155.296 124.175C155.88 124.175 156.342 123.959 156.68 123.527C157.019 123.096 157.188 122.465 157.188 121.636C157.188 120.988 157.017 120.47 156.674 120.081C156.335 119.687 155.872 119.49 155.284 119.49Z" fill="#888888"/>
<rect x="140.741" y="105" width="21.1111" height="7" fill="#E93E76"/>
<path d="M173.325 125V118.132H176.004C176.918 118.132 177.618 118.293 178.105 118.614C178.596 118.932 178.841 119.399 178.841 120.017C178.841 120.334 178.746 120.622 178.556 120.88C178.365 121.134 178.084 121.329 177.712 121.464C178.126 121.562 178.458 121.752 178.708 122.036C178.962 122.319 179.089 122.658 179.089 123.051C179.089 123.682 178.856 124.164 178.391 124.499C177.929 124.833 177.276 125 176.429 125H173.325ZM174.5 121.985V124.054H176.442C176.933 124.054 177.299 123.963 177.54 123.781C177.786 123.599 177.908 123.343 177.908 123.013C177.908 122.328 177.405 121.985 176.398 121.985H174.5ZM174.5 121.045H176.017C177.117 121.045 177.667 120.724 177.667 120.081C177.667 119.437 177.147 119.105 176.106 119.084H174.5V121.045ZM183.399 124.168C183.818 124.168 184.184 124.042 184.497 123.788C184.81 123.534 184.984 123.216 185.018 122.835H186.129C186.107 123.229 185.972 123.604 185.722 123.959C185.473 124.314 185.138 124.598 184.719 124.81C184.305 125.021 183.865 125.127 183.399 125.127C182.464 125.127 181.719 124.816 181.165 124.194C180.615 123.568 180.339 122.713 180.339 121.629V121.433C180.339 120.764 180.462 120.169 180.708 119.649C180.953 119.128 181.304 118.724 181.761 118.437C182.223 118.149 182.766 118.005 183.393 118.005C184.163 118.005 184.802 118.236 185.31 118.697C185.822 119.158 186.095 119.757 186.129 120.493H185.018C184.984 120.049 184.815 119.685 184.51 119.401C184.209 119.114 183.837 118.97 183.393 118.97C182.796 118.97 182.333 119.186 182.003 119.617C181.677 120.045 181.514 120.665 181.514 121.477V121.699C181.514 122.491 181.677 123.1 182.003 123.527C182.328 123.955 182.794 124.168 183.399 124.168Z" fill="#888888"/>
<rect x="168.889" y="14" width="21.1111" height="98" fill="#2E9EC2"/>
</svg>
